# xmcd
#
# Track frame offsets: 
#        150
#        12965
#        27228
#        42302
#        59692
#        78712
#        102725
#        118303
#        136070
#        148158
#        160655
#        173715
#        191652
#
# Disc length: 2893 seconds
#
# Revision: 0
# Processed by: cddbd v1.5.2PL0 Copyright (c) Steve Scherf et al.
# Submitted via: ExactAudioCopy v1.0b3
#
DISCID=bb0b4b0d
DTITLE=Good Old Boys - Good Old Boys Live: Drink Up and Go Home - Disc 2
DYEAR=2018
DGENRE=Bluegrass
TTITLE0=Lonesome Road Blues
TTITLE1=Long Gone
TTITLE2=Leave Well Enough Alone
TTITLE3=White House Blues
TTITLE4=T For Texas
TTITLE5=Jesus Loves His Mandolin Player
TTITLE6=First Whippoorwill
TTITLE7=New Camptown Races
TTITLE8=Pistol Packing Mama
TTITLE9=Rawhide
TTITLE10=Jerusalem Moan
TTITLE11=Drink Up and Go Home
TTITLE12=Orange Blossom Special
EXTD=
EXTT0=
EXTT1=
EXTT2=
EXTT3=
EXTT4=
EXTT5=
EXTT6=
EXTT7=
EXTT8=
EXTT9=
EXTT10=
EXTT11=
EXTT12=
PLAYORDER=
